<svg xmlns="http://www.w3.org/2000/svg" width="800" height="400" viewBox="0 0 800 400">
<style>
  .axis { stroke: #333; stroke-width: 1.5; fill: none; }
  .grid { stroke: #ddd; stroke-width: 0.5; fill: none; stroke-dasharray: 4,4; }
  .label { font-family: sans-serif; font-size: 11px; fill: #333; }
  .title { font-family: sans-serif; font-size: 14px; font-weight: bold; fill: #333; }
  .legend { font-family: sans-serif; font-size: 11px; fill: #333; }
</style>
<rect x="0" y="0" width="800" height="400" fill="white"/>
<text x="400.0" y="20" text-anchor="middle" class="title">Coverage Convergence Trend</text>
<line x1="60" y1="340.0" x2="740" y2="340.0" class="grid"/>
<text x="55" y="344.0" text-anchor="end" class="label">0%</text>
<line x1="60" y1="270.0" x2="740" y2="270.0" class="grid"/>
<text x="55" y="274.0" text-anchor="end" class="label">25%</text>
<line x1="60" y1="200.0" x2="740" y2="200.0" class="grid"/>
<text x="55" y="204.0" text-anchor="end" class="label">50%</text>
<line x1="60" y1="130.0" x2="740" y2="130.0" class="grid"/>
<text x="55" y="134.0" text-anchor="end" class="label">75%</text>
<line x1="60" y1="60.0" x2="740" y2="60.0" class="grid"/>
<text x="55" y="64.0" text-anchor="end" class="label">100%</text>
<text x="60.0" y="358" text-anchor="middle" class="label">Iter 1</text>
<text x="135.55555555555554" y="358" text-anchor="middle" class="label">Iter 2</text>
<text x="211.11111111111111" y="358" text-anchor="middle" class="label">Iter 3</text>
<text x="286.66666666666663" y="358" text-anchor="middle" class="label">Iter 4</text>
<text x="362.22222222222223" y="358" text-anchor="middle" class="label">Iter 5</text>
<text x="437.77777777777777" y="358" text-anchor="middle" class="label">Iter 6</text>
<text x="513.3333333333333" y="358" text-anchor="middle" class="label">Iter 7</text>
<text x="588.8888888888889" y="358" text-anchor="middle" class="label">Iter 8</text>
<text x="664.4444444444445" y="358" text-anchor="middle" class="label">Iter 9</text>
<text x="740.0" y="358" text-anchor="middle" class="label">Iter 10</text>
<line x1="60" y1="60" x2="60" y2="340" class="axis"/>
<line x1="60" y1="340" x2="740" y2="340" class="axis"/>
<polyline points="60.0,222.12 135.55555555555554,177.88000000000002 211.11111111111111,148.48 286.66666666666663,119.07999999999998 362.22222222222223,89.4 437.77777777777777,74.83999999999997 513.3333333333333,60.0 588.8888888888889,60.0 664.4444444444445,60.0 740.0,60.0" fill="none" stroke="#2563eb" stroke-width="2.5"/>
<circle cx="60.0" cy="222.12" r="4" fill="#2563eb"/>
<circle cx="135.55555555555554" cy="177.88000000000002" r="4" fill="#2563eb"/>
<circle cx="211.11111111111111" cy="148.48" r="4" fill="#2563eb"/>
<circle cx="286.66666666666663" cy="119.07999999999998" r="4" fill="#2563eb"/>
<circle cx="362.22222222222223" cy="89.4" r="4" fill="#2563eb"/>
<circle cx="437.77777777777777" cy="74.83999999999997" r="4" fill="#2563eb"/>
<circle cx="513.3333333333333" cy="60.0" r="4" fill="#2563eb"/>
<circle cx="588.8888888888889" cy="60.0" r="4" fill="#2563eb"/>
<circle cx="664.4444444444445" cy="60.0" r="4" fill="#2563eb"/>
<circle cx="740.0" cy="60.0" r="4" fill="#2563eb"/>
<polyline points="60.0,322.7692307692308 135.55555555555554,312.4307692307692 211.11111111111111,288.3076923076923 286.66666666666663,264.18461538461537 362.22222222222223,226.27692307692308 437.77777777777777,209.04615384615383 513.3333333333333,167.69230769230768 588.8888888888889,167.69230769230768 664.4444444444445,140.1230769230769 740.0,116.0" fill="none" stroke="#16a34a" stroke-width="2" stroke-dasharray="5,3"/>
<rect x="620" y="35" width="170" height="55" fill="white" stroke="#ccc" rx="4"/>
<line x1="630" y1="50" x2="660" y2="50" stroke="#2563eb" stroke-width="2.5"/>
<text x="665" y="54" class="legend">Coverage %</text>
<line x1="630" y1="70" x2="660" y2="70" stroke="#16a34a" stroke-width="2" stroke-dasharray="5,3"/>
<text x="665" y="74" class="legend">Tests Passed</text>
<text x="750.0" y="60.0" class="label" fill="#2563eb" font-weight="bold">100.0%</text>
</svg>